<?xml version="1.0" encoding="UTF-8" standalone="no"?>
<!-- Created with Inkscape (http://www.inkscape.org/) -->

<svg
   width="457"
   height="404"
   viewBox="0 0 120.91475 106.89166"
   version="1.1"
   id="svg5"
   inkscape:version="1.2.1 (9c6d41e410, 2022-07-14)"
   sodipodi:docname="logo-dark.svg"
   xmlns:inkscape="http://www.inkscape.org/namespaces/inkscape"
   xmlns:sodipodi="http://sodipodi.sourceforge.net/DTD/sodipodi-0.dtd"
   xmlns:xlink="http://www.w3.org/1999/xlink"
   xmlns="http://www.w3.org/2000/svg"
   xmlns:svg="http://www.w3.org/2000/svg">
  <sodipodi:namedview
     id="namedview7"
     pagecolor="#ffffff"
     bordercolor="#000000"
     borderopacity="0.25"
     inkscape:showpageshadow="2"
     inkscape:pageopacity="0.0"
     inkscape:pagecheckerboard="0"
     inkscape:deskcolor="#d1d1d1"
     inkscape:document-units="mm"
     showgrid="false"
     inkscape:zoom="1.4142136"
     inkscape:cx="270.46834"
     inkscape:cy="162.63456"
     inkscape:window-width="1920"
     inkscape:window-height="1017"
     inkscape:window-x="-8"
     inkscape:window-y="-8"
     inkscape:window-maximized="1"
     inkscape:current-layer="layer1" />
  <defs
     id="defs2">
    <linearGradient
       inkscape:collect="always"
       id="linearGradient8575">
      <stop
         style="stop-color:#9b8fd1;stop-opacity:0.99753088;"
         offset="0.05026929"
         id="stop8573" />
      <stop
         style="stop-color:#e05799;stop-opacity:1;"
         offset="1"
         id="stop8571" />
    </linearGradient>
    <linearGradient
       id="linearGradient8559"
       inkscape:swatch="solid">
      <stop
         style="stop-color:#ff0000;stop-opacity:1;"
         offset="0"
         id="stop8557" />
    </linearGradient>
    <inkscape:path-effect
       effect="lattice2"
       gridpoint0="39.952083,83.608332"
       gridpoint1="157.1625,83.608332"
       gridpoint2="39.952083,186.26706"
       gridpoint3="157.1625,186.26706"
       gridpoint4="69.254687,83.608332"
       gridpoint5="127.8599,83.608332"
       gridpoint6="69.254687,186.26706"
       gridpoint7="127.8599,186.26706"
       gridpoint8x9="98.557291,83.608332"
       gridpoint10x11="98.557291,186.26706"
       gridpoint12="39.952083,109.27301"
       gridpoint13="157.1625,109.27301"
       gridpoint14="39.952083,160.60238"
       gridpoint15="157.1625,160.60238"
       gridpoint16="74.118992,122.74339"
       gridpoint17="130.47914,119.74998"
       gridpoint18="81.228362,172.76314"
       gridpoint19="127.8599,160.60238"
       gridpoint20x21="112.43072,93.047208"
       gridpoint22x23="106.23021,150.01904"
       gridpoint24x26="39.952083,134.9377"
       gridpoint25x27="157.1625,134.9377"
       gridpoint28x30="72.435194,155.14327"
       gridpoint29x31="131.22749,151.02732"
       gridpoint32x33x34x35="101.3604,119.14248"
       id="path-effect6459"
       is_visible="true"
       lpeversion="1"
       horizontal_mirror="false"
       vertical_mirror="false"
       perimetral="false"
       live_update="true" />
    <linearGradient
       inkscape:collect="always"
       xlink:href="#linearGradient8575"
       id="linearGradient8577"
       x1="39.289356"
       y1="134.93971"
       x2="157.82503"
       y2="134.93971"
       gradientUnits="userSpaceOnUse"
       gradientTransform="translate(-37.979,-81.383571)" />
  </defs>
  <g
     inkscape:label="Layer 1"
     inkscape:groupmode="layer"
     id="layer1">
    <path
       style="color:#000000;fill:url(#linearGradient8577);fill-opacity:1;stroke-linecap:round;-inkscape-stroke:none"
       d="m 1.9741251,1.5636949 a 0.66145998,0.66145998 0 0 0 -0.662109,0.660156 0.66145998,0.66145998 0 0 0 0.660156,0.662109 c 39.0942659,0.01 117.2109379,0 117.2109379,0 a 0.66145998,0.66145998 0 0 0 0.66211,-0.662109 0.66145998,0.66145998 0 0 0 -0.66211,-0.660156 c 0,0 -78.115395,0.01 -117.2089849,0 z m 56.5273439,2.851562 c -6.076766,0.06816 -12.367155,0.223286 -20.025391,0.441406 -14.17209,0.403648 -25.784629,0.731192 -36.4589839,0.01953 a 0.66145998,0.66145998 0 0 0 -0.703125,0.615234 0.66145998,0.66145998 0 0 0 0.615234,0.705078 c 10.7646939,0.717684 22.4118149,0.386072 36.5839839,-0.01758 15.310675,-0.436076 25.121333,-0.614549 38.708983,-0.365234 11.7751,0.216057 21.99024,0.630621 29.56445,0.65625 7.56391,0.02559 12.43751,-0.273438 12.4375,-0.273438 a 0.66145998,0.66145998 0 0 0 0.61915,-0.701172 0.66145998,0.66145998 0 0 0 -0.69922,-0.61914 c 0,0 -4.82427,0.294999 -12.35157,0.269531 -7.52988,-0.02548 -17.75286,-0.439882 -29.54492,-0.65625 -6.80547,-0.124871 -12.66933,-0.142384 -18.746091,-0.07422 z m 2.25,2.953125 c -6.108408,0.147077 -12.562375,0.470715 -20.56836,0.919922 -14.787464,0.829709 -27.225048,1.467298 -38.1152339,-0.0957 a 0.66145998,0.66145998 0 0 0 -0.75,0.560547 0.66145998,0.66145998 0 0 0 0.560547,0.75 C 12.958366,11.093387 25.466711,10.438505 40.257328,9.6086189 56.260592,8.7106939 66.00133,8.3217099 79.19288,8.8234629 c 11.34608,0.431559 20.80519,1.2721781 28.02539,1.3007811 7.19884,0.02852 12.05273,-0.6210931 12.05273,-0.6210931 a 0.66145998,0.66145998 0 0 0 0.56836,-0.742188 0.66145998,0.66145998 0 0 0 -0.74414,-0.568359 c 0,0 -4.75385,0.637573 -11.8711,0.609375 -7.12159,-0.02821 -16.59727,-0.867811 -27.98046,-1.300781 -6.62113,-0.251841 -12.38378,-0.27989 -18.492191,-0.132813 z m 2.210941,3.0429691 c -6.137614,0.234175 -12.749325,0.73461 -21.085941,1.421875 -15.381658,1.268054 -28.620586,2.196526 -39.7578129,-0.31836 a 0.66145998,0.66145998 0 0 0 -0.791015,0.498047 0.66145998,0.66145998 0 0 0 0.5,0.791016 c 11.4236629,2.579565 24.7661159,1.616409 40.1562499,0.347656 16.663955,-1.373765 26.344489,-1.996273 39.140629,-1.24414 10.92543,0.642177 19.64748,1.910757 26.52539,1.923828 6.84503,0.01301 11.67382,-1.025391 11.67382,-1.025391 a 0.66145998,0.66145998 0 0 0 0.50586,-0.785156 0.66145998,0.66145998 0 0 0 -0.78515,-0.507813 c 0,0 -4.67999,1.008846 -11.39063,0.996094 -6.7158,-0.01276 -15.46743,-1.276156 -26.45312,-1.921875 -6.43896,-0.37847 -12.10067,-0.409956 -18.23828,-0.175781 z m 11.09765,2.908203 C 65.22493,13.230814 56.499287,14.075918 43.528812,15.466038 27.581857,17.175164 13.580498,18.369944 2.1694371,14.839085 a 0.66145998,0.66145998 0 0 0 -0.828125,0.435547 0.66145998,0.66145998 0 0 0 0.435547,0.828125 C 13.55802,19.748129 27.707149,18.49126 43.669437,16.780491 60.955344,14.927861 70.58142,14.056142 82.9878,15.051976 c 10.51787,0.844246 18.53556,2.535989 25.08789,2.519531 6.50761,-0.01634 11.29883,-1.466797 11.29883,-1.466797 a 0.66145998,0.66145998 0 0 0 0.4414,-0.826172 0.66145998,0.66145998 0 0 0 -0.82422,-0.441406 c 0,0 -4.60657,1.396253 -10.91992,1.412109 -6.31842,0.01587 -14.37451,-1.664465 -24.97851,-2.515625 -3.13059,-0.251285 -6.08816,-0.384483 -9.03321,-0.414062 z m 1.99219,3.105469 c -8.71106,-0.09238 -17.531567,0.990438 -30.933594,2.734376 -16.477083,2.14408 -31.197973,3.58671 -42.9042969,-0.992189 a 0.66145998,0.66145998 0 0 0 -0.857422,0.375 0.66145998,0.66145998 0 0 0 0.375,0.855469 c 12.1413429,4.74905 27.0583889,3.22131 43.5585939,1.07422 17.863829,-2.32453 27.440869,-3.455125 39.468749,-2.226564 10.12787,1.034494 17.47882,3.137934 23.72656,3.082034 6.19111,-0.0554 10.93946,-1.92969 10.93946,-1.92969 a 0.66145998,0.66145998 0 0 0 0.37304,-0.857422 0.66145998,0.66145998 0 0 0 -0.85742,-0.373047 c 0,0 -4.53587,1.784859 -10.4668,1.837889 -5.93504,0.0531 -13.33794,-2.030005 -23.58007,-3.07617 -3.04511,-0.311036 -5.93811,-0.473113 -8.8418,-0.503906 z m 1.87109,3.152346 c -8.59255,-0.0899 -17.498419,1.23083 -31.294918,3.3164 -16.966608,2.56479 -32.359084,4.2315 -44.3749999,-1.39843 a 0.66145998,0.66145998 0 0 0 -0.878906,0.31836 0.66145998,0.66145998 0 0 0 0.318359,0.8789 c 12.4962889,5.85501 28.1348479,4.07929 45.1328119,1.50977 18.393203,-2.78045 27.925803,-4.17295 39.591793,-2.72656 9.75961,1.21003 16.49126,3.70894 22.45899,3.60742 5.8993,-0.10042 10.5957,-2.39453 10.5957,-2.39453 a 0.66145998,0.66145998 0 0 0 0.30664,-0.88282 0.66145998,0.66145998 0 0 0 -0.88476,-0.30664 c 0,0 -4.47244,2.16498 -10.04102,2.25977 -5.57094,0.0948 -12.36978,-2.36976 -22.27344,-3.59766 -2.96414,-0.3675 -5.79206,-0.55401 -8.65625,-0.58398 z m 2.29688,3.22265 c -2.8408,-0.0461 -5.92875,0.0781 -9.40234,0.40235 -7.21259,0.67326 -14.08173,1.96403 -22.783208,3.44531 -17.410798,2.96389 -33.416403,4.83281 -45.7480469,-1.82422 a 0.66145998,0.66145998 0 0 0 -0.896484,0.26758 0.66145998,0.66145998 0 0 0 0.269531,0.89648 c 12.8403569,6.93166 29.1472029,4.93549 46.5976559,1.96485 8.713198,-1.48328 15.549612,-2.76572 22.683592,-3.43164 6.86555,-0.64086 12.15175,-0.4922 17.00391,0.21289 9.41697,1.36841 15.5778,4.23788 21.29297,4.08789 5.63536,-0.14789 10.27539,-2.8418 10.27539,-2.8418 a 0.66145998,0.66145998 0 0 0 0.24414,-0.9043 0.66145998,0.66145998 0 0 0 -0.9043,-0.24218 c 0,0 -4.41917,2.52873 -9.65039,2.66601 -5.23118,0.13729 -11.47671,-2.68237 -21.06836,-4.07617 -2.48083,-0.3605 -5.07327,-0.57689 -7.91406,-0.62305 z m 1.56445,3.22461 c -2.80627,-0.0444 -5.87897,0.10439 -9.36133,0.47657 -7.26021,0.77594 -14.179226,2.23204 -23.097653,3.90234 -17.805591,3.33472 -34.364628,5.38309 -47.0097649,-2.25195 a 0.66145998,0.66145998 0 0 0 -0.908203,0.22461 0.66145998,0.66145998 0 0 0 0.222656,0.9082 c 13.1691449,7.95144 30.0841829,5.76162 47.9374999,2.41797 8.933305,-1.67308 15.821615,-3.11994 22.996095,-3.88672 6.87526,-0.73479 12.06847,-0.58161 16.75976,0.19531 9.10357,1.50761 14.75002,4.71771 20.24219,4.51953 5.4017,-0.19491 9.98242,-3.26172 9.98242,-3.26172 a 0.66145998,0.66145998 0 0 0 0.1875,-0.91601 0.66145998,0.66145998 0 0 0 -0.91797,-0.1875 c 0,0 -4.37527,2.8653 -9.29882,3.04297 -4.9206,0.17755 -10.66968,-2.9623 -19.97852,-4.50391 -2.40979,-0.39908 -4.94959,-0.63531 -7.75586,-0.67969 z m 1.38281,3.24805 c -2.7746,-0.0409 -5.83422,0.12961 -9.32226,0.54688 -7.30164,0.87347 -14.253224,2.47922 -23.363283,4.32226 -18.147579,3.6714 -35.195987,5.87495 -48.1445309,-2.66601 a 0.66145998,0.66145998 0 0 0 -0.916015,0.18945 0.66145998,0.66145998 0 0 0 0.1875,0.91601 c 13.4787739,8.89072 30.9318379,6.53807 49.1347649,2.85547 9.127962,-1.84666 16.049764,-3.44022 23.259764,-4.30273 6.88008,-0.82304 11.98819,-0.67201 16.53516,0.16601 8.82265,1.62605 14.01818,5.14363 19.31836,4.90039 5.19999,-0.23863 9.7207,-3.64062 9.7207,-3.64062 a 0.66145998,0.66145998 0 0 0 0.13672,-0.92383 0.66145998,0.66145998 0 0 0 -0.92383,-0.13867 c 0,0 -4.34424,3.16747 -8.99414,3.38086 -4.64375,0.21311 -9.96009,-3.20958 -19.01758,-4.87891 -2.34664,-0.43249 -4.83672,-0.68561 -7.61133,-0.72656 z m 1.1875,3.26367 c -2.74606,-0.0361 -5.79049,0.15659 -9.28125,0.61524 -7.33651,0.96393 -14.307402,2.70047 -23.582027,4.69726 -18.433993,3.96877 -35.901886,6.30542 -49.1367189,-3.04883 a 0.66145998,0.66145998 0 0 0 -0.921875,0.15821 0.66145998,0.66145998 0 0 0 0.158203,0.92187 c 13.7655309,9.72934 31.6833379,7.24391 50.1796879,3.26172 9.295337,-2.00125 16.23444,-3.72645 23.47461,-4.67773 6.88015,-0.90398 11.91322,-0.75695 16.33398,0.13086 4.28859,0.86126 7.63485,2.20931 10.54688,3.33007 2.91203,1.12077 5.40656,2.03773 7.97656,1.89649 5.03133,-0.27651 9.4961,-3.9668 9.49609,-3.9668 a 0.66145998,0.66145998 0 0 0 0.0977,-0.93164 0.66145998,0.66145998 0 0 0 -0.92969,-0.0957 c 0,0 -4.32206,3.43123 -8.73632,3.67383 -2.20244,0.12104 -4.53298,-0.69568 -7.42969,-1.81055 -2.89672,-1.11487 -6.34197,-2.50497 -10.76172,-3.39258 -2.29186,-0.46027 -4.73832,-0.72567 -7.48438,-0.76172 z m 0.98047,3.27539 c -2.72088,-0.0299 -5.75353,0.18409 -9.24414,0.67969 -7.36442,1.04559 -14.33356,2.89235 -23.744138,5.02148 -18.662703,4.22242 -36.48063,6.66641 -49.9785159,-3.39062 a 0.66145998,0.66145998 0 0 0 -0.925781,0.13477 0.66145998,0.66145998 0 0 0 0.134766,0.92578 c 14.0257699,10.45034 32.3292069,7.85708 51.0605459,3.61914 9.433823,-2.1344 16.374153,-3.97055 23.638673,-5.00196 6.87566,-0.9762 11.84218,-0.83605 16.15625,0.0898 4.16963,0.89489 7.28921,2.4551 10.08789,3.66601 2.90106,1.25521 5.20157,1.98964 7.7832,1.82813 4.89624,-0.30631 9.3125,-4.23242 9.3125,-4.23242 a 0.66145998,0.66145998 0 0 0 0.0664,-0.9336 0.66145998,0.66145998 0 0 0 -0.93359,-0.0645 c 0,0 -4.30716,3.64614 -8.52735,3.91016 -2.28558,0.14298 -4.3354,-0.49176 -7.17578,-1.72071 -2.74565,-1.18796 -5.98828,-2.81341 -10.33398,-3.74609 -2.24587,-0.48201 -4.65607,-0.7553 -7.37696,-0.78516 z m 0.76368,3.28125 c -2.69931,-0.0226 -5.71928,0.21085 -9.20704,0.73828 -7.38499,1.11681 -14.34084,3.05305 -23.857418,5.29102 -18.83222,4.42871 -36.923804,6.95278 -50.6562499,-3.68164 a 0.66145998,0.66145998 0 0 0 -0.927735,0.11719 0.66145998,0.66145998 0 0 0 0.117188,0.92968 c 14.2559539,11.03983 32.8632139,8.36997 51.7695309,3.92383 9.542044,-2.24396 16.471314,-4.17017 23.753904,-5.27148 6.8669,-1.03845 11.77589,-0.90913 16.00391,0.043 4.08528,0.91992 7.0982,2.53658 9.80273,3.79687 2.8034,1.30635 5.03302,2.07815 7.56055,1.90625 4.79486,-0.3261 9.17187,-4.43359 9.17187,-4.43359 a 0.66145998,0.66145998 0 0 0 0.041,-0.93555 0.66145998,0.66145998 0 0 0 -0.93359,-0.041 c 0,0 -4.29849,3.813 -8.36914,4.08984 -2.21087,0.15036 -4.17073,-0.50771 -6.91211,-1.78516 -2.6507,-1.2352 -5.79677,-2.92635 -10.07032,-3.88867 -2.20894,-0.49743 -4.5878,-0.77625 -7.2871,-0.79883 z m 0.54101,3.28711 c -2.68151,-0.0144 -5.6895,0.23544 -9.17187,0.78906 -7.39786,1.17611 -14.32643,3.18038 -23.917973,5.50196 -18.941695,4.58473 -37.231984,7.16044 -51.1660159,-3.91406 a 0.66145998,0.66145998 0 0 0 -0.929687,0.10742 0.66145998,0.66145998 0 0 0 0.107422,0.92773 c 14.4527179,11.48675 33.2804149,8.76784 52.3007809,4.16406 9.618873,-2.32819 16.520523,-4.32088 23.814453,-5.48046 6.85415,-1.08967 11.71925,-0.97381 15.88281,-0.008 4.02211,0.93347 6.95558,2.58923 9.59375,3.88477 2.73464,1.3429 4.91509,2.14106 7.40625,1.96484 4.727,-0.33439 9.07813,-4.56054 9.07813,-4.56054 a 0.66145998,0.66145998 0 0 0 0.0273,-0.93555 0.66145998,0.66145998 0 0 0 -0.93555,-0.0273 c 0,0 -4.29572,3.92244 -8.26367,4.20313 -2.15971,0.15278 -4.05631,-0.51979 -6.72851,-1.83203 -2.58429,-1.26908 -5.65923,-3.007 -9.87891,-3.98633 -2.18134,-0.50609 -4.53723,-0.78447 -7.21875,-0.79883 z m 0.3125,3.28906 c -2.66771,-0.006 -5.66203,0.25833 -9.13672,0.83204 -7.40262,1.22223 -14.29311,3.2699 -23.927733,5.64843 -18.990922,4.68835 -37.401137,7.29031 -51.4999999,-4.07812 a 0.66145998,0.66145998 0 0 0 -0.929687,0.0996 0.66145998,0.66145998 0 0 0 0.09961,0.92968 c 14.6129509,11.78297 33.5732549,9.04265 52.6464849,4.33399 9.663436,-2.38565 16.528066,-4.42393 23.826176,-5.62891 6.83779,-1.12898 11.66972,-1.02928 15.79101,-0.0605 3.98081,0.93566 6.868619,2.61137 9.468749,3.92773 2.69528,1.36454 4.84594,2.1818 7.31836,2.00781 2.34615,-0.1651 4.57455,-1.33545 6.24219,-2.43945 1.66763,-1.104 2.78906,-2.17578 2.78906,-2.17578 a 0.66145998,0.66145998 0 0 0 0.0215,-0.93555 0.66145998,0.66145998 0 0 0 -0.93554,-0.0215 c 0,0 -1.03844,0.9919 -2.60547,2.02929 -1.56703,1.0374 -3.64673,2.08496 -5.60352,2.22266 -2.13281,0.15009 -3.99576,-0.53606 -6.6289,-1.86914 -2.54677,-1.28934 -5.579209,-3.04967 -9.763669,-4.0332 -2.16329,-0.5085 -4.50416,-0.78351 -7.17188,-0.78907 z m 0.0859,3.28711 c -2.65805,0.004 -5.6425,0.28184 -9.10742,0.86914 -7.39904,1.25414 -14.24142,3.32266 -23.886723,5.73047 -9.490168,2.36909 -18.877289,4.20724 -27.644531,4.00586 -8.767242,-0.20137 -16.8978659,-2.42252 -24.0097649,-8.17773 a 0.66145998,0.66145998 0 0 0 -0.931641,0.0976 0.66145998,0.66145998 0 0 0 0.09766,0.93164 c 7.366926,5.9616 15.8394799,8.26461 24.8124999,8.47071 8.973021,0.2061 18.463444,-1.66523 27.996094,-4.04492 9.67523,-2.41529 16.49232,-4.47448 23.78711,-5.71094 6.81827,-1.15569 11.6268,-1.0728 15.72851,-0.11328 3.96182,0.92678 6.833236,2.60119 9.423826,3.92383 2.68554,1.37109 4.83158,2.19823 7.30274,2.0332 2.34513,-0.15661 4.57382,-1.321 6.24218,-2.42188 1.66837,-1.10087 2.79102,-2.17382 2.79102,-2.17382 a 0.66145998,0.66145998 0 0 0 0.0215,-0.93555 0.66145998,0.66145998 0 0 0 -0.93554,-0.0215 c 0,0 -1.03813,0.99119 -2.60547,2.02539 -1.56734,1.03421 -3.64748,2.07654 -5.60156,2.20704 -2.13048,0.14228 -3.98897,-0.55079 -6.61328,-1.89063 -2.53823,-1.2959 -5.554556,-3.06012 -9.722656,-4.03516 -2.1548,-0.50407 -4.48648,-0.77327 -7.14453,-0.76953 z m -0.14063,3.28907 c -2.65268,0.0132 -5.63062,0.29841 -9.08398,0.89257 -7.38695,1.27095 -14.17346,3.33924 -23.796876,5.74805 -18.911012,4.73356 -37.32261,7.30637 -51.6289069,-4.19141 a 0.66145998,0.66145998 0 0 0 -0.93164,0.10157 0.66145998,0.66145998 0 0 0 0.101562,0.92968 c 14.8129579,11.90498 33.7836379,9.1986 52.7812499,4.44336 9.654051,-2.41648 16.415481,-4.47337 23.699221,-5.72656 6.79605,-1.16928 11.59619,-1.10706 15.70117,-0.16797 3.96533,0.90716 6.84952,2.56254 9.45898,3.87696 2.70526,1.36267 4.86634,2.19056 7.35352,2.04101 4.72041,-0.2838 9.08398,-4.5 9.08398,-4.5 a 0.66145998,0.66145998 0 0 0 0.0293,-0.93555 0.66145998,0.66145998 0 0 0 -0.93359,-0.0293 c 0,0 -4.30833,3.90696 -8.25977,4.14453 -2.15256,0.12943 -4.03221,-0.56976 -6.67773,-1.90234 -2.55853,-1.28876 -5.58905,-3.03219 -9.75977,-3.98633 -2.15597,-0.49322 -4.48403,-0.75153 -7.13672,-0.73828 z m -0.36523,3.28906 c -2.65176,0.0227 -5.62224,0.3141 -9.0625,0.9082 -7.36639,1.2721 -14.09091,3.31593 -23.660158,5.69727 -18.784672,4.67463 -37.083341,7.19409 -51.4277339,-4.13672 a 0.66145998,0.66145998 0 0 0 -0.927734,0.10742 0.66145998,0.66145998 0 0 0 0.109375,0.92969 c 14.8481799,11.72876 33.6926009,9.07913 52.5644529,4.38281 9.600158,-2.38903 16.301408,-4.42315 23.566408,-5.67773 6.77168,-1.1694 11.57411,-1.12668 15.70508,-0.21875 3.99134,0.87723 6.91991,2.49517 9.57617,3.78711 2.75397,1.33945 4.95245,2.1593 7.47265,2.03125 4.7822,-0.24299 9.17774,-4.33204 9.17774,-4.33204 a 0.66145998,0.66145998 0 0 0 0.0469,-0.93554 0.66145998,0.66145998 0 0 0 -0.93359,-0.0469 c 0,0 -4.31726,3.78681 -8.35938,3.99219 -2.19847,0.11171 -4.12979,-0.587 -6.82617,-1.89844 -2.60725,-1.2681 -5.67681,-2.96922 -9.86914,-3.89062 -2.16674,-0.47622 -4.50058,-0.72194 -7.15234,-0.69922 z m -0.58399,3.29297 c -2.6554,0.0319 -5.61895,0.32312 -9.04492,0.91015 -7.3376,1.25731 -13.99889,3.25439 -23.482419,5.58008 -18.60368,4.56228 -36.708228,7.00317 -51.0449219,-4.00976 a 0.66145998,0.66145998 0 0 0 -0.927735,0.12304 0.66145998,0.66145998 0 0 0 0.121094,0.92578 c 14.8377929,11.39787 33.4776219,8.82963 52.1679689,4.2461 9.514303,-2.33324 16.149903,-4.32018 23.388673,-5.56055 6.74579,-1.15588 11.56284,-1.13611 15.74219,-0.26953 4.03956,0.83759 7.04128,2.40067 9.77148,3.65625 2.83086,1.30187 5.0863,2.10336 7.65625,2.00195 4.87505,-0.19234 9.31836,-4.0957 9.31836,-4.0957 a 0.66145998,0.66145998 0 0 0 0.0703,-0.93164 0.66145998,0.66145998 0 0 0 -0.93164,-0.0723 c 0,0 -4.33178,3.61446 -8.50976,3.7793 -2.26722,0.0895 -4.27459,-0.60608 -7.05079,-1.88281 -2.68379,-1.23424 -5.82188,-2.8743 -10.05468,-3.75196 -2.18705,-0.45347 -4.53406,-0.68034 -7.18946,-0.64843 z m -0.79101,3.29492 c -2.66372,0.0405 -5.62632,0.33129 -9.03711,0.9043 -7.30116,1.22657 -13.89419,3.1558 -23.261719,5.39843 -18.371039,4.39811 -36.209801,6.73804 -50.4921879,-3.8125 a 0.66145998,0.66145998 0 0 0 -0.925781,0.13868 0.66145998,0.66145998 0 0 0 0.138672,0.92578 c 14.7804279,10.91844 33.1318239,8.45362 51.5878899,4.03515 9.397726,-2.24986 15.966246,-4.17033 23.171876,-5.38086 6.71902,-1.12877 11.56496,-1.13023 15.81445,-0.31445 4.10947,0.7889 7.21276,2.28236 10.04297,3.48828 2.93485,1.25052 5.26628,2.02573 7.90234,1.95508 4.9983,-0.13397 9.4961,-3.79883 9.4961,-3.79883 a 0.66145998,0.66145998 0 0 0 0.10547,-0.92969 0.66145998,0.66145998 0 0 0 -0.92969,-0.10351 c 0,0 -4.35107,3.39301 -8.70703,3.50976 -2.35741,0.0632 -4.46559,-0.6227 -7.34961,-1.85156 -2.78718,-1.18759 -6.0186,-2.74442 -10.31055,-3.56836 -2.21672,-0.42555 -4.58237,-0.63624 -7.24609,-0.5957 z m -0.99024,3.30469 c -2.6768,0.0484 -5.63809,0.33266 -9.0332,0.88476 -7.25791,1.18027 -13.7828,3.02285 -23.005858,5.15625 -18.090392,4.18454 -35.594131,6.40033 -49.7753909,-3.55273 a 0.66145998,0.66145998 0 0 0 -0.921875,0.16015 0.66145998,0.66145998 0 0 0 0.16211,0.92188 c 14.6750609,10.29964 32.6613569,7.96332 50.8339839,3.75976 9.252239,-2.14015 15.75348,-3.97328 22.91992,-5.13867 6.69214,-1.08825 11.57744,-1.11189 15.91797,-0.35547 8.41363,1.46626 13.35214,5.24539 18.5957,5.17383 5.15097,-0.0702 9.71094,-3.44531 9.71094,-3.44531 a 0.66145998,0.66145998 0 0 0 0.14649,-0.92383 0.66145998,0.66145998 0 0 0 -0.92383,-0.14648 c 0,0 -4.37903,3.131 -8.95117,3.19336 -4.55853,0.0622 -9.65555,-3.63884 -18.35157,-5.1543 -2.25554,-0.39308 -4.64742,-0.58157 -7.32422,-0.5332 z m -1.17382,3.3164 c -2.69473,0.0551 -5.65782,0.33092 -9.03711,0.85547 -7.20899,1.11902 -13.666246,2.85374 -22.718753,4.85352 -17.766024,3.92466 -34.86667,5.99658 -48.9003909,-3.23633 a 0.66145998,0.66145998 0 0 0 -0.916015,0.1875 0.66145998,0.66145998 0 0 0 0.1875,0.91601 c 14.5209779,9.55349 32.0697719,7.36578 49.9140619,3.42383 9.080218,-2.0059 15.514337,-3.73231 22.636717,-4.83789 6.66591,-1.03471 11.60334,-1.07629 16.05469,-0.38672 8.6281,1.33663 13.95932,4.85565 19.37305,4.85157 5.33168,-0.004 9.95703,-3.04883 9.95703,-3.04883 a 0.66145998,0.66145998 0 0 0 0.19336,-0.91406 0.66145998,0.66145998 0 0 0 -0.91407,-0.19336 c 0,0 -4.4142,2.83018 -9.23632,2.83398 -4.81073,0.004 -10.28384,-3.4613 -19.16993,-4.83789 -2.30321,-0.3568 -4.7291,-0.52191 -7.42382,-0.4668 z m -1.3418,3.33594 c -2.71753,0.0605 -5.68702,0.32185 -9.05078,0.8125 -7.15589,1.04378 -13.543584,2.65215 -22.402346,4.49609 -17.402849,3.6224 -34.041976,5.53238 -47.8828119,-2.87304 a 0.66145998,0.66145998 0 0 0 -0.908203,0.2207 0.66145998,0.66145998 0 0 0 0.222656,0.9082 c 14.3177539,8.69506 31.3619189,6.67668 48.8378909,3.03907 8.884559,-1.84932 15.249234,-3.45045 22.324214,-4.48243 6.64119,-0.9687 11.64403,-1.02861 16.22461,-0.41211 8.87888,1.19503 14.65611,4.41974 20.26563,4.48243 5.53865,0.0618 10.22656,-2.61524 10.22656,-2.61524 a 0.66145998,0.66145998 0 0 0 0.25,-0.90234 0.66145998,0.66145998 0 0 0 -0.90234,-0.25 c 0,0 -4.45777,2.50227 -9.5586,2.44531 -5.09169,-0.0569 -10.99351,-3.24457 -20.10351,-4.4707 -2.35936,-0.31755 -4.82544,-0.45895 -7.54297,-0.39844 z m -1.49219,3.35742 c -2.74524,0.0643 -5.72329,0.31091 -9.07226,0.76172 -7.10028,0.95578 -13.421227,2.41932 -22.06641,4.08789 -17.006412,3.28235 -33.124192,5.01415 -46.7285159,-2.47461 a 0.66145998,0.66145998 0 0 0 -0.898437,0.25977 0.66145998,0.66145998 0 0 0 0.259765,0.89844 c 14.0652449,7.74248 30.5459029,5.91048 47.6191409,2.61523 8.668636,-1.6731 14.966257,-3.1304 21.992187,-4.07617 6.61887,-0.89098 11.69906,-0.96645 16.42578,-0.42774 9.16318,1.04434 15.43488,3.94672 21.26367,4.07227 5.7693,0.12428 10.51563,-2.16602 10.51563,-2.16602 a 0.66145998,0.66145998 0 0 0 0.31055,-0.88281 0.66145998,0.66145998 0 0 0 -0.88282,-0.31055 c 0,0 -4.51102,2.15351 -9.91406,2.03711 -5.396,-0.11622 -11.77665,-2.99701 -21.14258,-4.06445 -2.42351,-0.27621 -4.93639,-0.39435 -7.68164,-0.33008 z m -2.21679,3.37696 c -8.27628,0.2473 -16.643679,1.96718 -30.220708,4.3496 -16.582879,2.90988 -32.132451,4.44913 -45.4589849,-2.05468 a 0.66145998,0.66145998 0 0 0 -0.884765,0.30468 0.66145998,0.66145998 0 0 0 0.304687,0.88282 c 13.7636249,6.71713 29.6252489,5.09022 46.2675779,2.16992 18.123163,-3.18016 26.802973,-5.14002 38.304693,-4.0625 9.47788,0.88792 16.28289,3.44586 22.35156,3.62695 6.02036,0.17966 10.81836,-1.71289 10.81836,-1.71289 a 0.66145998,0.66145998 0 0 0 0.37304,-0.85742 0.66145998,0.66145998 0 0 0 -0.85742,-0.37305 c 0,0 -4.57177,1.79188 -10.29492,1.6211 -5.71796,-0.17063 -12.61594,-2.7169 -22.26758,-3.6211 -2.92788,-0.27429 -5.67679,-0.35587 -8.43554,-0.27343 z m -1.72266,3.43359 c -8.38876,0.23838 -16.67964,1.72556 -29.904298,3.7832 -16.139033,2.5111 -31.075621,3.84715 -44.0859379,-1.62695 a 0.66145998,0.66145998 0 0 0 -0.867187,0.35351 0.66145998,0.66145998 0 0 0 0.353515,0.86719 c 13.4135059,5.64375 28.6125779,4.2339 44.8027349,1.71485 17.649643,-2.74614 26.368553,-4.44816 38.210933,-3.56836 9.81961,0.72951 17.19399,2.92093 23.51954,3.14648 6.28789,0.22422 11.1289,-1.27148 11.1289,-1.27148 a 0.66145998,0.66145998 0 0 0 0.4375,-0.82618 0.66145998,0.66145998 0 0 0 -0.82812,-0.4375 c 0,0 -4.63611,1.42882 -10.69141,1.2129 -6.0517,-0.21579 -13.50423,-2.40425 -23.46875,-3.14454 -3.00402,-0.22317 -5.81117,-0.28258 -8.60742,-0.20312 z m -1.79883,3.48242 c -8.51601,0.22184 -16.745758,1.46602 -29.601562,3.18164 -15.682262,2.09281 -29.970107,3.21464 -42.6289059,-1.21094 a 0.66145998,0.66145998 0 0 0 -0.841797,0.40625 0.66145998,0.66145998 0 0 0 0.40625,0.84375 c 13.0161729,4.55052 27.5159159,3.36991 43.2402339,1.27149 17.153991,-2.28922 25.946271,-3.71987 38.144531,-3.0332 10.1846,0.57331 18.153,2.38773 24.74805,2.64257 6.56723,0.25378 11.44336,-0.86132 11.44336,-0.86132 a 0.66145998,0.66145998 0 0 0 0.49609,-0.79102 0.66145998,0.66145998 0 0 0 -0.79102,-0.49805 c 0,0 -4.70424,1.07519 -11.09765,0.82813 -6.39108,-0.24696 -14.42315,-2.06074 -24.72461,-2.64063 -3.08424,-0.17362 -5.9543,-0.21262 -8.79297,-0.13867 z m -1.8457,3.53711 c -8.65777,0.19701 -16.843041,1.19 -29.318362,2.55273 -15.220553,1.66261 -28.832412,2.56638 -41.1074219,-0.82031 a 0.66145998,0.66145998 0 0 0 -0.814453,0.46289 0.66145998,0.66145998 0 0 0 0.460938,0.8125 c 12.5739569,3.46917 26.3504049,2.52749 41.6035149,0.86133 16.642895,-1.81798 25.549834,-2.96678 38.113284,-2.46289 9.18691,0.36847 16.72822,1.74657 26.01758,2.11914 h 0.002 c 6.85303,0.26372 11.7539,-0.50195 11.7539,-0.50195 a 0.66145998,0.66145998 0 0 0 0.55079,-0.75586 0.66145998,0.66145998 0 0 0 -0.75586,-0.55078 c 0,0 -4.76632,0.74508 -11.4961,0.48633 -9.18691,-0.36847 -16.73017,-1.74657 -26.01953,-2.11915 -3.16724,-0.12703 -6.10431,-0.14965 -8.99023,-0.084 z m 7.33594,3.64648 c -13.00625,-0.33943 -22.147907,0.5276 -38.26563,1.86915 -14.762465,1.22874 -27.681521,1.90617 -39.5429689,-0.48243 a 0.66145998,0.66145998 0 0 0 -0.779297,0.51758 0.66145998,0.66145998 0 0 0 0.519532,0.7793 c 12.0906319,2.43474 25.1265979,1.73456 39.9121089,0.5039 16.123393,-1.34201 25.189585,-2.20271 38.121095,-1.86523 10.9682,0.28624 20.16529,1.33654 27.3164,1.58594 7.13939,0.24899 12.05274,-0.21485 12.05274,-0.21485 a 0.66145998,0.66145998 0 0 0 0.5957,-0.7207 0.66145998,0.66145998 0 0 0 -0.7207,-0.5957 c 0,0 -4.82139,0.45525 -11.88281,0.20898 -7.0608,-0.24624 -16.2931,-1.298 -27.32617,-1.58594 z m -1.63086,3.65625 c -13.34191,-0.1943 -22.66967,0.37806 -38.269536,1.25 -14.317026,0.80023 -26.533416,1.25077 -37.9531249,-0.21484 a 0.66145998,0.66145998 0 0 0 -0.740234,0.57227 0.66145998,0.66145998 0 0 0 0.570312,0.74023 c 11.5715749,1.485111 23.8661919,1.02367 38.1972659,0.22266 15.602689,-0.8721 24.882547,-1.44168 38.177737,-1.24805 11.37799,0.16572 21.18749,0.8446 28.61328,1.04883 7.41983,0.20407 12.33789,-0.0195 12.33789,-0.0195 a 0.66145998,0.66145998 0 0 0 0.63086,-0.69141 0.66145998,0.66145998 0 0 0 -0.69141,-0.63086 c 0,0 -4.86286,0.22244 -12.24023,0.0195 -7.37721,-0.20289 -17.21343,-0.8825 -28.63281,-1.04883 z m -1.57032,3.765631 c -13.6681,-0.0788 -23.244811,0.20299 -38.332028,0.62305 -13.892822,0.38679 -25.415598,0.60911 -36.3652349,-0.0469 a 0.66145998,0.66145998 0 0 0 -0.701171,0.6211 0.66145998,0.66145998 0 0 0 0.621093,0.69921 c 11.0227429,0.66037 22.5834359,0.4358 36.4824219,0.0488 15.088091,-0.42008 24.640739,-0.70174 38.287109,-0.62304 11.79334,0.068 22.20512,0.39264 29.89453,0.51562 7.68743,0.12295 12.5957,0.0606 12.5957,0.0606 a 0.66145998,0.66145998 0 0 0 0.65235,-0.66992 0.66145998,0.66145998 0 0 0 -0.66992,-0.65235 c 0,0 -4.88541,0.0622 -12.55664,-0.0605 -7.6713,-0.12269 -18.09511,-0.44746 -29.90821,-0.51562 z M 1.9740851,104.2219 a 0.66145998,0.66145998 0 0 0 -0.662109,0.66211 0.66145998,0.66145998 0 0 0 0.660156,0.66015 c 39.0839849,0.01 117.2109379,0 117.2109379,0 a 0.66145998,0.66145998 0 0 0 0.66211,-0.66015 0.66145998,0.66145998 0 0 0 -0.66211,-0.66211 c 0,0 -78.125676,0.01 -117.2089849,0 z"
       id="path6456" />
  </g>
</svg>
